<svg xmlns="http://www.w3.org/2000/svg" viewBox="0 0 64 66" width="64" height="66">
	<style>
		tspan { white-space:pre }
		.shp0 { fill: #1b1b1b } 
	</style>
	<g id="about">
		<g id="iconboxes">
			<g id="iconbox">
				<g id="icon">
					<path id="Anchor" class="shp0" d="M32 65.19C18.76 65.19 7.62 55.29 6.08 42.16C5.95 41.06 6.73 40.07 7.83 39.94C8.92 39.8 9.92 40.59 10.05 41.69C11.35 52.81 20.79 61.19 32 61.19C43.19 61.19 52.63 52.82 53.95 41.73C54.08 40.63 55.07 39.84 56.17 39.98C57.27 40.11 58.06 41.1 57.92 42.2C56.36 55.31 45.22 65.19 32 65.19ZM32 64.68C30.89 64.68 30 63.79 30 62.68L30 17.56C30 16.45 30.89 15.56 32 15.56C33.1 15.56 34 16.45 34 17.56L34 62.68C34 63.79 33.1 64.68 32 64.68ZM32.03 4.94C34.27 4.94 36.09 6.76 36.09 9C36.09 11.24 34.27 13.06 32.03 13.06C29.79 13.06 27.97 11.24 27.97 9C27.97 6.76 29.79 4.94 32.03 4.94M32.03 0.94C27.58 0.94 23.97 4.55 23.97 9C23.97 13.45 27.58 17.06 32.03 17.06C36.48 17.06 40.09 13.45 40.09 9C40.09 4.55 36.48 0.94 32.03 0.94L32.03 0.94ZM56.4 40.16L48.49 45.54C47.81 45.97 46.89 45.95 46.48 45.25L46.07 44.8C45.67 44.1 45.89 43.18 46.57 42.74L55.67 36.6C55.68 36.59 55.69 36.58 55.7 36.57L56.32 36.17C56.66 35.95 57.05 35.9 57.4 35.99C57.76 36.07 58.09 36.3 58.29 36.65L58.66 37.28C58.67 37.3 58.66 37.31 58.67 37.32L63.81 46.78C64.22 47.48 64 48.39 63.32 48.83L62.75 49.05C62.07 49.48 61.23 49.09 60.82 48.39L56.4 40.16ZM7.6 40.16L15.51 45.54C16.19 45.97 17.11 45.95 17.52 45.25L17.93 44.8C18.33 44.1 18.11 43.18 17.43 42.74L8.33 36.6C8.32 36.59 8.31 36.58 8.3 36.57L7.68 36.17C7.34 35.95 6.95 35.9 6.6 35.99C6.24 36.07 5.91 36.3 5.71 36.65L5.34 37.28C5.33 37.3 5.34 37.31 5.33 37.32L0.19 46.78C-0.22 47.48 0 48.39 0.68 48.83L1.25 49.05C1.93 49.48 2.77 49.09 3.18 48.39L7.6 40.16ZM22 17L42 17C43.1 17 44 17.89 44 19C44 20.1 43.1 21 42 21L22 21C20.9 21 20 20.1 20 19C20 17.89 20.9 17 22 17Z" />
				</g>
			</g>
		</g>
	</g>
</svg>