<svg xmlns="http://www.w3.org/2000/svg" viewBox="0 0 66 49" width="66" height="49">
	<style>
		tspan { white-space:pre }
		.shp0 { fill: #1b1b1b } 
	</style>
	<g id="about">
		<g id="iconboxes">
			<g id="iconbox 3">
				<g id="icon">
					<path id="Eyeglasses" class="shp0" d="M2.91 35.69C2.86 35.69 2.81 35.69 2.77 35.69C1.66 35.61 0.83 34.65 0.91 33.55C0.97 32.68 4.03 13.72 4.54 10.66C4.59 10.37 4.62 10.06 4.67 9.73C5.06 6.65 5.79 0.94 15.01 0.94C16.12 0.94 17.01 1.83 17.01 2.94C17.01 4.04 16.12 4.94 15.01 4.94C9.31 4.94 9.01 7.28 8.63 10.24C8.59 10.62 8.54 10.98 8.48 11.32C8.09 13.7 5.32 27.99 4.9 33.83C4.83 34.89 3.95 35.69 2.91 35.69ZM63.09 35.82C62.05 35.82 60.97 35.01 60.9 33.96C60.48 28.12 57.71 13.7 57.32 11.32C57.26 10.98 57.21 10.62 57.17 10.24C56.79 7.28 56.49 4.94 50.79 4.94C49.69 4.94 48.79 4.04 48.79 2.94C48.79 1.83 49.69 0.94 50.79 0.94C60.01 0.94 60.74 6.65 61.13 9.73C61.18 10.06 61.21 10.37 61.26 10.66C61.77 13.72 65.03 32.81 65.09 33.67C65.17 34.78 64.34 35.73 63.23 35.81C63.19 35.82 63.14 35.82 63.09 35.82ZM15.08 25.02C20.58 25.02 25.04 29.48 25.04 34.98C25.04 40.47 20.58 44.94 15.08 44.94C9.57 44.94 4.92 40.38 4.92 34.98C4.92 29.58 9.57 25.02 15.08 25.02M15.08 21.02C7.37 21.02 0.92 27.27 0.92 34.98C0.92 42.69 7.37 48.94 15.08 48.94C22.79 48.94 29.04 42.69 29.04 34.98C29.04 27.27 22.79 21.02 15.08 21.02L15.08 21.02ZM51.08 25.02C56.57 25.02 61.04 29.48 61.04 34.98C61.04 40.47 56.57 44.94 51.08 44.94C45.57 44.94 40.91 40.38 40.91 34.98C40.91 29.58 45.57 25.02 51.08 25.02M51.08 21.02C43.37 21.02 36.91 27.27 36.91 34.98C36.91 42.69 43.37 48.94 51.08 48.94C58.79 48.94 65.04 42.69 65.04 34.98C65.04 27.27 58.79 21.02 51.08 21.02L51.08 21.02ZM27.87 31.96L25.69 28.6C25.97 28.42 28.51 26.83 32.98 26.83C37.25 26.83 39.86 28.23 40.15 28.39L38.18 31.88C38.18 31.88 36.21 30.83 32.98 30.83C29.71 30.83 27.89 31.94 27.87 31.96Z" />
				</g>
			</g>
		</g>
	</g>
</svg>